<svg width="24" height="25" viewBox="0 0 24 25" fill="none" xmlns="http://www.w3.org/2000/svg">
<path d="M21.89 3.00018H2.10865C0.947974 3.00018 0 3.94689 0 5.11026V19.173C0 20.3312 0.942722 21.2818 2.10865 21.2818H21.89C23.0494 21.2818 24 20.339 24 19.173V5.11026C24 3.95083 23.056 3.00018 21.89 3.00018ZM21.5986 4.40646L12.044 13.9615L2.4067 4.40646H21.5986ZM1.40621 18.8815V5.39388L8.17857 12.1088L1.40621 18.8815ZM2.40013 19.8755L9.17643 13.0989L11.5516 15.4532C11.826 15.7263 12.2698 15.725 12.5429 15.4505L14.859 13.1356L21.5986 19.8755H2.40013ZM22.5938 18.8815L15.8529 12.1416L22.5938 5.40044V18.8815Z" fill="#A7B6C2"/>
</svg>
