<svg width="100" height="45" viewBox="0 0 100 45" fill="none" xmlns="http://www.w3.org/2000/svg">
<path d="M75.1258 0.00356338C73.7857 -0.0043127 72.7095 1.08882 72.7017 2.42893L72.7039 18.7248C72.7302 19.3103 73.2146 19.8005 73.812 19.7891C74.3409 19.7833 74.5177 19.5466 74.5177 19.5466L79.0513 14.1443L88.1679 14.1414C89.508 14.1493 90.5842 13.0562 90.5921 11.7161L90.5962 2.42416C90.5892 1.09585 89.5109 0.00787608 88.1708 0L75.1258 0.00356338Z" fill="white"/>
<path d="M4.34366 44.4939H0V32.7671C0 31.5996 0.108619 30.5949 0.352727 29.7535C0.597065 28.9121 0.923158 28.1789 1.35741 27.6089C2.03577 26.7128 2.93137 26.0069 3.99047 25.5456C5.04911 25.0847 6.2437 24.8399 7.54668 24.8399C8.60533 24.8399 9.61 25.0027 10.5329 25.3561C11.4285 25.7089 12.216 26.2244 12.8946 26.849C13.5734 27.4734 14.0891 28.2602 14.4692 29.1562C14.8493 30.052 15.0389 31.0569 15.0389 32.1427C15.0389 33.2553 14.8761 34.2324 14.5234 35.1287C14.1704 36.0243 13.682 36.7844 13.0847 37.4088C12.4601 38.0327 11.7546 38.5219 10.9401 38.8748C10.1255 39.2278 9.25658 39.3904 8.33412 39.3904C7.32944 39.3904 6.4878 39.2278 5.83654 38.9017C5.15796 38.6031 4.66906 38.2777 4.34366 37.9514V44.4939ZM87.9239 44.3947H86.1871V32.9111C86.1871 32.4766 86.2007 32.0924 86.2271 31.7573C86.2533 31.4228 86.2836 31.1291 86.3189 30.8753C86.4769 29.9882 86.7484 29.1916 87.1346 28.4861C87.5204 27.7802 88.0029 27.1831 88.5816 26.6942C89.1603 26.2056 89.8269 25.8301 90.5811 25.5681C91.3352 25.3056 92.1509 25.174 93.0277 25.174C94.0445 25.174 94.9833 25.3603 95.8428 25.7307C96.7019 26.1018 97.4384 26.6086 98.0529 27.2509C98.6665 27.8936 99.1448 28.6446 99.4868 29.5041C99.8287 30.3641 100 31.2822 100 32.2596C100 33.2548 99.8287 34.1826 99.4868 35.0424C99.1448 35.9019 98.6665 36.6533 98.0529 37.2951C97.4384 37.9377 96.7019 38.4406 95.8428 38.8018C94.9833 39.1637 94.0445 39.3449 93.0277 39.3449C91.9052 39.3449 90.8966 39.1049 90.0024 38.6254C89.1079 38.1466 88.4146 37.517 87.9239 36.7389V44.3947ZM34.2996 39.0317C34.2495 39.016 34.1999 39 34.1503 38.9834C33.2274 38.6844 32.4133 38.2231 31.7345 37.5987C31.0559 37.0014 30.4859 36.2415 30.0786 35.3186C29.6712 34.4228 29.4539 33.3639 29.4539 32.1425C29.4539 30.9754 29.6712 29.9434 30.0786 29.021C30.4859 28.1247 31.0284 27.3641 31.7345 26.7399C32.4133 26.1155 33.2274 25.6544 34.1776 25.3286C35.1008 25.0029 36.0777 24.8397 37.1366 24.8397C38.0866 24.8397 39.0095 24.9487 39.8516 25.1931C40.693 25.4374 41.3172 25.7901 41.7246 26.1973C41.9142 26.3874 42.0773 26.6042 42.2128 26.8212C42.3216 27.0663 42.3758 27.3375 42.3758 27.6358C42.3758 27.9345 42.3216 28.2331 42.2128 28.4779C42.1044 28.7222 41.9689 28.9665 41.8059 29.156C41.643 29.3464 41.4802 29.5365 41.3172 29.6722C41.1275 29.8348 40.9916 29.9434 40.8556 30.0247C40.5297 29.6991 40.0686 29.4003 39.4982 29.102C38.9285 28.8306 38.2223 28.6946 37.4351 28.6946C36.9738 28.6946 36.5122 28.7759 36.105 28.9119C35.6705 29.0478 35.2905 29.2651 34.992 29.5636C34.6663 29.8623 34.422 30.2149 34.2318 30.6493C34.0419 31.0838 33.9333 31.5725 33.9333 32.1425C33.9333 32.7395 34.0419 33.2555 34.2318 33.6627C34.422 34.0972 34.6663 34.4496 34.992 34.7213C35.2905 34.9925 35.6705 35.1829 36.105 35.3186C36.5393 35.4539 37.0006 35.5088 37.4895 35.5088C37.8969 35.5088 38.3041 35.4539 38.6568 35.3726C39.0095 35.291 39.3083 35.21 39.5797 35.1011C39.8516 34.9925 40.0686 34.8841 40.2585 34.7757C40.4487 34.6942 40.5571 34.6129 40.6115 34.5583L42.5118 37.8701C42.3216 38.0063 42.05 38.1416 41.7246 38.3322C41.3987 38.5216 41.0186 38.6844 40.5571 38.847C40.1109 39.0048 39.5894 39.1373 39.0157 39.2436C38.9363 39.738 38.7126 40.1443 38.3438 40.452C37.8547 40.8667 37.2084 41.0741 36.3863 41.0741C35.6423 41.0741 35.0551 40.982 34.6245 40.8208C34.1942 40.6589 33.9195 40.5209 33.8022 40.4056L34.2996 39.0317ZM20.2242 33.9612C20.2516 34.1787 20.3599 34.3955 20.5228 34.5856C20.6585 34.8028 20.8759 34.9925 21.1745 35.1829C21.4457 35.3723 21.7986 35.5087 22.2331 35.6174C22.6674 35.7255 23.1829 35.78 23.8075 35.78C24.2691 35.78 24.7307 35.7255 25.1376 35.6442C25.545 35.5629 25.9248 35.4814 26.2238 35.3999C26.5219 35.3186 26.7936 35.2098 26.9837 35.1285C27.1736 35.0469 27.3098 34.9654 27.3364 34.9385L28.8566 37.979C28.7209 38.0601 28.4766 38.196 28.1512 38.359C27.7978 38.5216 27.3909 38.6844 26.8753 38.8473C26.3591 39.0103 25.7896 39.1465 25.1107 39.2549C24.4319 39.3906 23.6721 39.4448 22.8575 39.4448C21.8528 39.4448 20.9028 39.2817 20.007 38.9561C19.1114 38.6305 18.3513 38.1416 17.6998 37.5176C17.021 36.8932 16.505 36.1329 16.1251 35.2373C15.7451 34.3413 15.5549 33.3097 15.5549 32.1425C15.5549 31.0567 15.7451 30.052 16.1251 29.156C16.505 28.2604 17.021 27.4732 17.6998 26.8488C18.3786 26.2244 19.1656 25.7088 20.0614 25.3559C20.9572 25.0027 21.9346 24.8399 22.9932 24.8399C23.9706 24.8399 24.8389 24.9758 25.6263 25.2199C26.4135 25.4918 27.0654 25.8441 27.6081 26.3061C28.1239 26.7677 28.5312 27.283 28.8298 27.853C29.101 28.4232 29.2369 29.0209 29.2369 29.6449C29.2369 30.3237 29.1283 30.9205 28.884 31.4363C28.6396 31.9792 28.2323 32.4412 27.6352 32.7937C27.011 33.174 26.1965 33.4728 25.1649 33.6627C24.1061 33.8526 22.776 33.9612 21.1745 33.9612H20.2242ZM55.5147 38.9832C55.4063 39.0101 55.1615 39.065 54.7819 39.0916C54.4019 39.1465 53.9405 39.2002 53.3703 39.2549C52.7999 39.3093 52.1484 39.3633 51.4156 39.3904C50.6826 39.4177 49.8954 39.4446 49.0811 39.4446C47.6968 39.4446 46.5569 39.3093 45.6606 39.065C44.7648 38.8204 44.0318 38.4948 43.4889 38.0876C42.9462 37.68 42.566 37.192 42.3485 36.6214C42.1315 36.0787 42.0231 35.509 42.0231 34.8844C42.0231 33.2282 42.566 32.0341 43.6244 31.3011C44.6832 30.5949 46.3936 30.2422 48.701 30.2422C49.2712 30.2422 49.7599 30.2422 50.1668 30.269C50.5471 30.2961 50.8728 30.3237 51.1169 30.3506C51.1169 29.7266 50.8728 29.2104 50.3572 28.8577C49.841 28.5045 48.9727 28.3148 47.7781 28.3148C47.2081 28.3148 46.7195 28.3414 46.3121 28.3959C45.8781 28.4779 45.5247 28.5592 45.2261 28.6409C44.9276 28.7222 44.6833 28.8303 44.4931 28.9121C44.3032 28.9932 44.1948 29.0747 44.1131 29.1291C44.086 29.1022 44.0047 29.0207 43.896 28.9121C43.7877 28.8035 43.679 28.6678 43.5702 28.4779C43.4618 28.3148 43.3532 28.1247 43.2717 27.9074C43.1899 27.6902 43.1362 27.4459 43.1362 27.2015C43.1362 25.6271 44.7374 24.8399 47.968 24.8399C49.0264 24.8399 50.0038 24.9212 50.9274 25.1118C51.8499 25.3015 52.6644 25.6271 53.3432 26.0884C54.0216 26.5502 54.5374 27.1744 54.9445 27.9345C55.3246 28.6946 55.5147 29.6449 55.5147 30.785V38.9832ZM77.991 26.6398C77.0049 26.6398 76.2046 26.7666 75.589 27.0199C74.9729 27.2741 74.5505 27.5088 74.3223 27.7256C74.1994 27.6355 74.0894 27.5088 73.9937 27.3457C73.8972 27.1831 73.8485 27.0022 73.8485 26.8031C73.8485 26.6054 73.8972 26.4359 73.9937 26.2933C74.0894 26.1511 74.2079 26.0271 74.3485 25.9201C74.5246 25.778 74.9129 25.6184 75.5121 25.4411C76.1112 25.2634 76.9223 25.1743 77.9451 25.1743C80.0431 25.1743 81.6738 25.6175 82.8376 26.5043C84.0007 27.391 84.5826 28.8212 84.5826 30.7935V38.9104C84.0731 39.0007 83.3389 39.0955 82.3811 39.1956C81.4237 39.2946 80.338 39.3449 79.125 39.3449C77.7184 39.3449 76.5895 39.2174 75.7369 38.9637C74.8845 38.7095 74.2203 38.3781 73.7459 37.9693C73.2717 37.5613 72.9548 37.1029 72.797 36.5943C72.6386 36.0863 72.5598 35.5779 72.5598 35.0692C72.5598 34.4159 72.656 33.8211 72.8491 33.2856C73.042 32.7505 73.3706 32.2915 73.8357 31.911C74.3002 31.5291 74.9276 31.2299 75.7169 31.0117C76.5059 30.794 77.4964 30.6849 78.6896 30.6849C79.0754 30.6849 79.4791 30.6987 79.8998 30.7253C80.3205 30.7529 80.7196 30.7798 81.0969 30.8069C81.4737 30.8344 81.8159 30.8659 82.1229 30.9024C82.4297 30.9391 82.6711 30.9658 82.8465 30.9835V30.8206C82.8465 29.988 82.7099 29.3004 82.4373 28.7578C82.1645 28.2142 81.8042 27.7848 81.3552 27.4681C80.9065 27.1519 80.3917 26.9342 79.8116 26.8162C79.2311 26.6991 78.6239 26.6398 77.991 26.6398ZM72.1127 38.9648H56.6429V36.8439C58.9931 34.4152 61.3168 31.9316 63.6151 29.3941C65.9126 26.8564 68.1135 24.3818 70.2184 21.9705H58.0373C57.7914 21.9705 57.5856 21.9042 57.4187 21.7705C57.2522 21.6371 57.1688 21.4284 57.1688 21.1431C57.1688 20.947 57.1996 20.7785 57.2611 20.6361C57.3222 20.4933 57.3707 20.3954 57.4058 20.3422H70.5603C71.139 20.3422 71.5553 20.4459 71.8098 20.6542C72.0642 20.8634 72.1917 21.1668 72.1917 21.5657C72.1917 21.9467 72.0468 22.3455 71.7574 22.7621C71.4678 23.1787 71.0249 23.7314 70.4287 24.4203C69.8321 25.109 69.1834 25.848 68.4818 26.6361C67.7801 27.4249 67.0569 28.2275 66.3113 29.0432C65.5658 29.8584 64.8163 30.6741 64.0622 31.4905C63.3076 32.3062 62.589 33.0766 61.9047 33.8016C61.2206 34.527 60.5937 35.193 60.0235 35.8004C59.4533 36.4076 58.9752 36.9192 58.5898 37.336H72.1127V38.9648ZM82.8465 32.5305C82.6876 32.4952 82.2701 32.4222 81.5929 32.3138C80.915 32.2051 79.9172 32.1509 78.5975 32.1509C77.9465 32.1509 77.3574 32.196 76.8295 32.2862C76.3018 32.3771 75.8489 32.5358 75.4707 32.7616C75.0923 32.988 74.802 33.2909 74.5992 33.6712C74.3971 34.0512 74.2959 34.522 74.2959 35.083C74.2959 36.0601 74.6697 36.7796 75.4174 37.2409C76.1651 37.7027 77.4098 37.9333 79.1521 37.9333C80.2952 37.9333 81.1484 37.8837 81.7114 37.7838C82.2747 37.6844 82.653 37.6074 82.8465 37.5532V32.5305ZM98.1319 32.2596C98.1319 31.4995 98.0134 30.78 97.7766 30.1012C97.5396 29.4226 97.1977 28.8347 96.7504 28.3364C96.303 27.839 95.7682 27.4456 95.1456 27.1556C94.5231 26.8667 93.8172 26.7211 93.0277 26.7211C92.2561 26.7211 91.5586 26.8616 90.9361 27.1418C90.3133 27.4229 89.7828 27.8075 89.3447 28.296C88.9058 28.7847 88.5641 29.3684 88.3186 30.0468C88.0727 30.7256 87.9503 31.4634 87.9503 32.2596C87.9503 33.0195 88.0727 33.7389 88.3186 34.4177C88.5641 35.0963 88.9107 35.6849 89.3578 36.1827C89.8051 36.6801 90.3397 37.0783 90.9627 37.3764C91.5851 37.6754 92.2735 37.8247 93.0277 37.8247C93.8172 37.8247 94.5231 37.6846 95.1456 37.404C95.7682 37.1234 96.303 36.7302 96.7504 36.2232C97.1977 35.7166 97.5396 35.1278 97.7766 34.4586C98.0134 33.789 98.1319 33.0564 98.1319 32.2596ZM51.1442 33.3095C50.9811 33.2826 50.7373 33.2282 50.4383 33.2011C50.1129 33.1742 49.624 33.1742 48.9996 33.1742C48.4567 33.1742 48.0225 33.2282 47.6693 33.3095C47.3168 33.391 47.0722 33.5267 46.8823 33.6627C46.6921 33.8255 46.5569 34.0154 46.4751 34.2055C46.3936 34.3952 46.3663 34.6129 46.3663 34.8297C46.3663 34.9923 46.3936 35.1556 46.4478 35.3455C46.5022 35.5356 46.6104 35.6987 46.8005 35.8344C46.9909 35.9696 47.2623 36.1056 47.6153 36.1869C47.968 36.2957 48.4567 36.3499 49.054 36.3499C49.5156 36.3499 49.9501 36.3231 50.3572 36.2957C50.7641 36.2686 51.0087 36.2413 51.1442 36.2144V33.3095ZM7.43829 35.4541C8.33412 35.4541 9.094 35.1287 9.69106 34.5041C10.2613 33.8797 10.5598 33.0927 10.5598 32.1153C10.5598 31.138 10.2613 30.3506 9.69106 29.7535C9.094 29.1562 8.33412 28.8577 7.43829 28.8577C6.542 28.8577 5.78236 29.1562 5.21193 29.7266C4.61486 30.2961 4.31656 31.1104 4.31656 32.1153C4.31656 32.5772 4.39784 33.0114 4.56066 33.4186C4.69661 33.8255 4.91339 34.1784 5.21193 34.4767C5.48359 34.7755 5.80968 35.0198 6.18927 35.1829C6.56933 35.3723 6.97648 35.4541 7.43829 35.4541ZM20.007 31.1382C21.2282 31.1382 22.1518 31.0836 22.8302 31.0018C23.509 30.9205 23.9974 30.7851 24.3233 30.6491C24.6489 30.5136 24.8389 30.3506 24.9206 30.1611C25.0017 29.9707 25.029 29.8077 25.029 29.618C25.029 29.2377 24.8662 28.9119 24.5135 28.6133C24.1603 28.3414 23.6447 28.2064 22.9659 28.2064C22.4772 28.2064 22.0427 28.2875 21.69 28.4505C21.3373 28.6409 21.0385 28.8577 20.7944 29.1289C20.5499 29.4003 20.3599 29.6993 20.2242 30.052C20.0887 30.4048 20.0345 30.7851 20.007 31.1382Z" fill="white"/>
</svg>
