<?xml version="1.0" standalone="no"?>
<!DOCTYPE svg PUBLIC "-//W3C//DTD SVG 20010904//EN"
 "http://www.w3.org/TR/2001/REC-SVG-20010904/DTD/svg10.dtd">
<svg version="1.0" xmlns="http://www.w3.org/2000/svg"
 width="1600.000000pt" height="1600.000000pt" viewBox="0 0 1600.000000 1600.000000"
 preserveAspectRatio="xMidYMid meet">
<metadata>
Created by potrace 1.11, written by Peter Selinger 2001-2013
</metadata>
<g transform="translate(0.000000,1600.000000) scale(0.100000,-0.100000)"
fill="#000000" stroke="none">
<path d="M11890 11578 c-30 -11 -60 -27 -68 -34 -7 -8 -17 -14 -22 -14 -14 0
-91 -83 -115 -125 -55 -94 -52 -31 -52 -1490 0 -1307 1 -1351 19 -1384 45 -79
118 -110 213 -89 34 8 51 23 115 100 41 49 86 102 100 118 14 15 32 36 40 47
18 22 107 129 132 158 9 11 27 32 40 47 13 15 34 42 48 59 14 18 32 40 41 48
15 16 104 122 124 149 6 7 19 23 30 35 11 12 41 47 66 77 l47 55 743 1 c409 1
762 4 784 8 152 25 289 165 313 318 9 59 8 1600 -1 1636 -21 83 -126 232 -163
232 -8 0 -14 4 -14 9 0 4 -24 19 -52 32 l-53 24 -1130 2 c-1114 1 -1131 1
-1185 -19z"/>
<path d="M9165 8297 c-22 -46 -23 -71 -10 -134 3 -12 22 -35 42 -50 l36 -28
998 0 c738 0 995 -3 991 -11 -8 -13 -79 -97 -119 -140 -15 -17 -41 -46 -58
-65 -58 -67 -170 -193 -185 -209 -14 -15 -101 -114 -150 -170 -12 -14 -48 -54
-80 -90 -32 -36 -67 -74 -77 -86 -33 -38 -148 -166 -173 -194 -14 -15 -56 -62
-95 -105 -90 -101 -151 -168 -195 -215 -19 -20 -69 -75 -110 -120 -41 -46 -90
-99 -109 -119 -63 -68 -229 -246 -261 -281 -45 -49 -291 -308 -375 -395 -38
-40 -93 -97 -121 -127 l-51 -53 0 -167 0 -166 26 -4 c14 -1 571 -3 1236 -3
l1210 1 0 129 0 130 -1072 1 c-590 0 -1074 2 -1077 5 -2 2 26 36 62 75 37 39
119 126 182 194 63 67 133 142 155 165 111 116 332 352 455 486 47 50 96 104
110 119 57 62 206 224 225 245 11 12 57 63 103 113 46 50 92 100 102 112 22
25 136 153 170 190 14 15 48 53 75 85 28 31 61 69 75 84 14 16 46 52 72 82 26
30 56 65 68 79 12 14 39 45 59 70 20 24 43 51 52 60 38 40 142 184 166 231 31
62 40 148 21 204 -17 52 -80 100 -145 111 -26 4 -534 8 -1127 9 l-1079 1 -22
-49z"/>
<path d="M1127 7624 c-1 -1 -33 -4 -72 -7 -38 -4 -82 -9 -97 -12 -16 -3 -38
-7 -50 -9 -13 -2 -43 -9 -68 -15 -25 -7 -52 -13 -61 -15 -28 -7 -152 -58 -204
-84 -119 -59 -225 -144 -327 -261 -16 -17 -28 -33 -28 -37 0 -3 -6 -12 -12
-19 -28 -31 -35 -43 -70 -115 -40 -84 -91 -220 -82 -220 4 0 1 -7 -6 -15 -7
-9 -10 -18 -7 -22 4 -3 2 -13 -2 -22 -5 -9 -12 -41 -16 -71 -4 -30 -10 -68
-13 -85 -3 -16 -7 -503 -9 -1082 l-4 -1052 33 -1 c18 0 40 0 48 0 8 -1 40 0
71 1 31 1 61 -1 68 -5 6 -4 11 -3 11 1 0 10 63 8 79 -2 6 -3 11 -3 11 2 0 9
52 9 66 0 6 -3 16 -2 23 3 8 4 25 5 40 1 14 -4 37 -5 51 -1 14 4 32 4 40 0 8
-4 24 -4 35 0 11 4 30 4 42 -1 13 -5 23 -5 23 -1 0 4 12 8 27 7 l28 0 0 518
c0 284 1 517 2 517 2 0 26 -18 55 -40 94 -73 276 -152 378 -165 14 -1 43 -6
65 -10 41 -6 206 -7 260 -1 30 3 107 16 135 21 39 9 151 50 205 76 130 62 268
170 346 271 24 31 47 57 52 57 4 1 7 7 7 14 0 7 8 22 18 33 15 16 105 188 107
204 1 3 8 28 18 55 21 63 44 164 53 235 9 68 8 301 0 355 -4 22 -9 51 -11 65
-11 72 -15 88 -29 128 -8 23 -16 46 -17 50 -24 97 -151 313 -234 396 -181 181
-382 287 -650 342 -55 11 -318 26 -328 18z m153 -649 c68 -7 180 -54 211 -87
9 -10 19 -18 22 -18 11 0 55 -49 88 -96 32 -47 62 -116 75 -171 13 -57 11
-227 -3 -286 -56 -241 -258 -397 -503 -389 -117 4 -229 52 -316 137 -129 127
-185 309 -154 505 35 224 204 386 424 407 33 3 63 7 64 9 2 1 14 0 25 -2 12
-2 42 -7 67 -9z"/>
<path d="M3587 7624 c-1 -1 -33 -5 -72 -9 -77 -8 -110 -12 -110 -15 0 -2 -14
-5 -55 -13 -116 -23 -304 -114 -424 -205 -136 -102 -249 -242 -321 -397 -20
-44 -40 -87 -45 -95 -4 -8 -17 -58 -29 -110 -12 -52 -26 -109 -30 -126 -9 -34
-7 -343 2 -409 38 -275 180 -531 388 -700 126 -103 284 -181 436 -216 26 -6
57 -13 68 -15 113 -27 469 -26 605 1 73 15 87 17 106 20 161 22 529 170 502
202 -6 7 -7 13 -2 13 5 0 5 4 -1 8 -5 4 -59 106 -119 228 l-110 221 -53 -24
c-30 -14 -59 -26 -66 -27 -7 -1 -16 -4 -22 -7 -12 -7 -62 -20 -92 -24 -11 -2
-30 -6 -41 -9 -11 -4 -31 -9 -44 -11 -13 -3 -34 -7 -48 -10 -136 -26 -388 -23
-442 6 -10 5 -18 7 -18 4 0 -12 -135 48 -184 81 -52 37 -126 132 -126 164 0
14 17 16 133 17 270 1 514 19 665 50 15 3 34 6 42 8 71 10 214 61 304 108 197
102 295 279 291 527 -1 52 -7 120 -14 150 -14 58 -89 220 -102 220 -4 0 -10 8
-13 18 -4 9 -36 49 -74 87 -133 139 -303 224 -535 271 -61 12 -340 27 -350 18z
m208 -549 c69 -14 109 -35 153 -82 24 -25 41 -48 38 -51 -3 -3 -1 -11 4 -17
25 -30 16 -111 -18 -172 -17 -31 -107 -73 -184 -88 -11 -2 -27 -6 -36 -9 -32
-10 -160 -23 -277 -30 -77 -4 -222 -8 -257 -7 -13 1 -15 9 -11 49 6 62 37 153
70 205 52 82 170 176 245 193 90 22 195 25 273 9z"/>
<path d="M5858 7625 c-2 -2 -34 -5 -73 -8 -150 -13 -348 -70 -480 -139 -199
-104 -355 -258 -454 -448 -40 -76 -80 -170 -87 -203 -2 -10 -6 -27 -9 -37 -3
-10 -8 -28 -10 -39 -3 -12 -7 -31 -10 -43 -18 -82 -25 -347 -12 -433 16 -101
19 -119 26 -139 5 -11 9 -24 10 -28 0 -5 1 -9 2 -10 0 -2 2 -11 4 -21 2 -10 7
-26 11 -35 4 -9 8 -22 9 -28 7 -32 91 -192 130 -246 51 -73 139 -167 210 -223
28 -22 52 -42 55 -45 16 -16 170 -94 238 -121 49 -20 71 -32 67 -39 -6 -9 -27
-62 -31 -75 -1 -5 -12 -36 -23 -69 -11 -32 -19 -62 -16 -66 12 -19 153 -75
215 -86 64 -11 95 -13 165 -14 152 -1 231 19 321 85 23 16 52 45 65 65 13 19
26 37 30 40 3 3 11 26 19 53 7 26 15 47 19 48 3 0 13 2 21 4 8 2 29 7 45 10
17 3 39 9 50 12 25 9 22 8 68 17 20 5 40 12 43 17 3 5 9 7 14 4 5 -3 11 -1 15
5 3 5 13 10 21 10 24 0 234 107 261 134 10 9 0 34 -50 121 -35 61 -103 178
-151 262 l-87 152 -37 -21 c-135 -78 -291 -124 -432 -128 -242 -7 -415 69
-516 226 -29 45 -40 74 -73 184 -15 48 -10 213 8 280 17 64 62 162 85 185 6 7
24 28 39 48 51 65 182 136 285 154 51 9 238 8 292 -1 64 -10 157 -44 215 -78
73 -42 89 -52 95 -59 24 -26 81 -59 92 -53 28 17 96 81 138 130 47 55 97 178
85 213 -3 11 -1 22 5 26 6 3 8 10 5 15 -3 5 -8 28 -11 51 -4 24 -18 61 -33 82
-14 22 -33 50 -41 63 -8 13 -23 27 -32 30 -10 3 -18 9 -18 14 0 5 -17 19 -37
31 -21 13 -41 27 -44 32 -3 5 -9 9 -12 8 -4 0 -31 11 -60 24 -62 27 -150 55
-191 61 -16 2 -46 9 -67 14 -22 6 -44 8 -49 5 -6 -3 -10 -3 -10 2 0 4 -12 9
-27 10 -59 4 -293 10 -295 8z"/>
<path d="M7557 7624 c-1 -1 -38 -5 -82 -8 -129 -10 -156 -14 -240 -36 -156
-40 -266 -114 -308 -209 -15 -33 -21 -68 -21 -122 -1 -68 3 -83 36 -151 21
-41 55 -94 76 -116 l39 -41 44 22 c82 40 179 71 264 84 17 2 44 8 60 12 36 9
375 7 425 -3 19 -4 53 -12 75 -17 142 -36 238 -132 247 -249 3 -51 18 -47
-127 -35 -152 12 -438 6 -569 -11 -28 -3 -62 -8 -76 -9 -127 -14 -283 -64
-384 -123 -58 -33 -175 -137 -176 -155 0 -5 -8 -21 -19 -35 -23 -34 -68 -146
-76 -192 -38 -204 -23 -372 47 -520 78 -163 231 -276 473 -349 190 -56 271
-64 655 -65 323 0 453 5 670 29 34 4 77 8 94 10 101 10 183 22 193 28 9 6 8
1364 -1 1452 -7 64 -14 106 -30 173 -26 106 -120 266 -207 352 -76 75 -234
171 -324 196 -5 1 -41 12 -80 23 -38 12 -97 26 -130 31 -33 5 -69 12 -80 14
-65 13 -457 30 -468 20z m493 -1338 c73 -4 113 -10 128 -19 4 -3 6 -103 5
-224 -2 -261 0 -239 -15 -240 -7 -1 -49 -4 -93 -8 -326 -28 -531 6 -617 102
-23 25 -48 107 -38 123 4 7 5 20 3 30 -7 27 16 90 47 130 27 34 95 76 140 85
11 3 30 8 43 11 12 3 76 8 142 11 66 2 124 6 130 7 5 1 18 1 30 0 11 -2 54 -5
95 -8z"/>
<path d="M12468 7575 c-2 -1 -57 -5 -123 -8 -117 -6 -133 -8 -225 -28 -54 -12
-140 -43 -198 -72 -42 -21 -80 -61 -97 -102 -20 -49 3 -142 45 -180 18 -16 22
-16 42 -3 58 38 156 87 162 81 3 -3 6 -1 6 5 0 7 3 11 8 10 4 0 14 2 22 5 82
33 210 51 365 51 210 -1 337 -24 459 -83 198 -97 311 -285 319 -528 l2 -77
-49 3 c-27 1 -58 5 -70 7 -11 2 -57 7 -101 10 -44 3 -102 8 -130 11 -84 9
-535 11 -574 3 -20 -5 -55 -11 -77 -14 -177 -23 -381 -107 -455 -188 -9 -10
-21 -18 -26 -18 -21 0 -104 -146 -130 -229 -22 -71 -27 -108 -29 -211 -2 -69
2 -146 7 -170 6 -25 13 -55 15 -67 2 -12 9 -35 16 -50 6 -16 12 -33 13 -38 5
-22 68 -106 109 -145 100 -95 248 -166 429 -205 12 -2 35 -7 51 -11 143 -31
629 -36 881 -9 22 2 67 7 100 10 33 3 80 8 105 12 25 3 57 7 73 7 15 1 27 3
27 6 0 3 19 6 42 7 22 2 44 5 47 8 8 8 5 1356 -3 1440 -12 121 -69 317 -98
336 -6 3 -10 10 -10 15 -2 19 -48 81 -98 133 -118 120 -339 224 -525 247 -16
2 -46 6 -65 9 -19 3 -78 8 -130 11 -52 3 -103 6 -112 8 -9 2 -18 3 -20 1z
m444 -1129 c90 -9 146 -16 203 -26 28 -5 67 -12 89 -15 21 -3 41 -7 45 -9 9
-6 7 -793 -2 -802 -7 -8 -19 -11 -62 -18 -11 -2 -33 -6 -50 -10 -110 -24 -194
-30 -435 -31 -195 0 -315 7 -381 21 -13 3 -35 7 -49 10 -44 9 -114 32 -158 51
-52 24 -141 93 -142 111 0 6 -4 12 -8 12 -13 0 -64 118 -67 155 -26 268 57
425 267 503 81 30 126 39 243 48 44 3 81 7 82 8 5 5 363 -3 425 -8z"/>
<path d="M14848 7575 c-2 -1 -34 -5 -73 -8 -74 -6 -213 -31 -255 -47 -14 -5
-38 -15 -55 -21 -16 -7 -32 -13 -35 -14 -41 -12 -182 -94 -213 -123 -13 -12
-26 -22 -30 -22 -4 0 -36 -30 -72 -66 -115 -117 -193 -245 -254 -417 -17 -48
-30 -89 -30 -92 0 -3 -5 -31 -11 -62 -7 -32 -15 -71 -17 -88 -3 -16 -7 -499
-10 -1072 -3 -850 -2 -1043 9 -1044 7 0 70 -1 140 -2 l126 -2 0 603 c0 332 2
606 5 608 2 3 13 -8 23 -25 25 -39 117 -135 163 -169 20 -15 38 -29 41 -32 8
-8 62 -39 100 -58 19 -9 37 -20 40 -23 3 -3 23 -12 45 -19 22 -7 45 -15 50
-19 6 -3 15 -6 20 -8 6 -1 21 -5 35 -8 143 -37 303 -49 430 -32 95 13 116 16
135 21 11 3 36 9 55 14 88 22 216 82 320 150 61 40 230 202 230 220 0 7 4 12
8 12 4 0 17 14 27 32 11 17 30 48 42 67 45 73 116 246 128 308 2 16 11 62 19
103 19 100 15 339 -8 441 -27 127 -113 346 -138 357 -5 2 -8 9 -8 14 0 12 -92
135 -137 183 -115 124 -319 248 -478 292 -91 24 -150 34 -240 39 -44 2 -90 6
-102 8 -13 2 -24 2 -25 1z m154 -259 c125 -14 284 -82 389 -167 74 -59 146
-147 195 -235 31 -56 78 -179 88 -234 3 -14 8 -36 11 -50 14 -52 14 -305 0
-381 -48 -273 -204 -501 -415 -609 -60 -31 -157 -66 -205 -76 -52 -10 -277
-11 -335 -2 -165 27 -361 151 -478 304 -36 47 -96 157 -118 217 -26 69 -63
247 -52 247 7 0 7 4 1 13 -11 13 -10 210 1 262 4 17 12 55 18 85 7 30 12 58
12 62 1 3 4 10 9 14 4 4 7 13 7 20 0 18 52 127 65 136 5 4 7 8 2 8 -7 0 41 80
55 90 3 3 20 23 37 44 41 52 152 140 215 170 67 33 156 67 156 61 0 -3 8 -1
18 4 10 5 47 13 83 16 35 4 65 8 67 10 3 3 121 -3 174 -9z"/>
</g>
</svg>
